<svg width="26" height="26" viewBox="0 0 36 36" fill="none" xmlns="http://www.w3.org/2000/svg">
<path d="M19.5 31.4996V8.12063L27.4395 16.0601C27.5782 16.202 27.7437 16.3149 27.9264 16.3923C28.109 16.4698 28.3052 16.5102 28.5036 16.5113C28.702 16.5124 28.8986 16.4741 29.0821 16.3987C29.2656 16.3233 29.4324 16.2122 29.5726 16.0719C29.7129 15.9316 29.8239 15.7648 29.8993 15.5813C29.9747 15.3978 30.013 15.2012 30.0119 15.0028C30.0107 14.8044 29.9702 14.6082 29.8928 14.4256C29.8153 14.2429 29.7024 14.0774 29.5605 13.9388L19.0605 3.43875C18.7792 3.15755 18.3977 2.99957 18 2.99957C17.6023 2.99957 17.2208 3.15755 16.9395 3.43875L6.4395 13.9388C6.29994 14.0779 6.18927 14.2433 6.11384 14.4253C6.03842 14.6074 5.99973 14.8026 6 14.9996C6.00006 15.2963 6.08807 15.5862 6.2529 15.8328C6.41773 16.0794 6.65197 16.2716 6.92602 16.3851C7.20007 16.4986 7.50162 16.5284 7.79255 16.4705C8.08348 16.4127 8.35072 16.2698 8.5605 16.0601L16.5 8.12063V31.4996C16.5 31.8975 16.658 32.279 16.9393 32.5603C17.2206 32.8416 17.6022 32.9996 18 32.9996C18.3978 32.9996 18.7794 32.8416 19.0607 32.5603C19.342 32.279 19.5 31.8975 19.5 31.4996Z" fill="black"/>
</svg>
