<svg width="29" height="33" viewBox="0 0 29 33" fill="none" xmlns="http://www.w3.org/2000/svg">
<path fill-rule="evenodd" clip-rule="evenodd" d="M14.2415 0.0246476C14.4121 -0.00821585 14.5879 -0.00821585 14.7585 0.0246476L27.9403 2.56311C28.5565 2.68176 29 3.20267 29 3.80769V16.9313C29 16.9314 29 16.9312 29 16.9313C29.0005 19.344 28.3516 21.7159 27.1166 23.8153C25.8815 25.9147 24.1025 27.6701 21.953 28.9103L15.1776 32.8195C14.7604 33.0602 14.2396 33.0602 13.8224 32.8195L7.047 28.9103C4.89749 27.6701 3.11846 25.9147 1.88342 23.8153C0.64842 21.7159 -0.000477755 19.3443 2.63912e-07 16.9315C2.63912e-07 16.9314 2.63912e-07 16.9316 2.63912e-07 16.9315V3.80769C2.63912e-07 3.20267 0.443515 2.68176 1.05967 2.56311L14.2415 0.0246476ZM2.63636 4.84821V16.9315C2.63593 18.9057 3.16685 20.8465 4.17734 22.5642C5.18783 24.2819 6.6434 25.7181 8.40209 26.7328L14.5 30.2511L20.5979 26.7328C22.3566 25.7181 23.8122 24.2819 24.8227 22.5642C25.8331 20.8465 26.3641 18.9059 26.3636 16.9318V4.84821L14.5 2.5636L2.63636 4.84821Z" fill="white"/>
<path fill-rule="evenodd" clip-rule="evenodd" d="M22.0231 10.5256C22.5379 11.0212 22.5379 11.8249 22.0231 12.3205L14.114 19.9359C13.5992 20.4316 12.7646 20.4316 12.2498 19.9359L8.29527 16.1282C7.78048 15.6325 7.78048 14.8289 8.29527 14.3333C8.81005 13.8376 9.64467 13.8376 10.1595 14.3333L13.1819 17.2435L20.1589 10.5256C20.6737 10.0299 21.5083 10.0299 22.0231 10.5256Z" fill="white"/>
</svg>
